The Rock*1996*[BluRay][1080p][ENG, POL, MultiSub]

General information:
Country: USA
Release: 7 June 1996
Genre: Action, Adventure, Thriller 
Director: Michael Bay
Screenplay: David Weisberg, Douglas Cook, Mark Rosner
Original Music: Nick Glennie-Smith, Hans Zimmer 
Cinematography by: John Schwartzman
Duration: 2h 16mn
Language: English Polish
Subtitles: English, Polish, Czech, Danish, Dutch, Estonian, Finnish, French, German, Hungarian, Norwegian, Portuguese, Serbian, Spanish, Swedish 
Rating: 7.8/10 - 23608 votes 

Cast:
Sean Connery  ...  John Patrick Mason  
Nicolas Cage  ...  Dr. Stanley Goodspeed  
Ed Harris  ...  Brigadier General Francis X. Hummel, USMC  
John Spencer  ...  FBI Director James Womack  
David Morse  ...  Major Tom Baxter  
William Forsythe  ...  Special Agent Ernest Paxton  
Michael Biehn  ...  Commander Anderson  
Vanessa Marcil  ...  Carla Pestalozzi  
John C. McGinley  ...  Marine Captain Hendrix (as John C. Mc Ginley)  
Gregory Sporleder  ...  Captain Frye  
Tony Todd  ...  Captain Darrow  
Bokeem Woodbine  ...  Sergeant Crisp  
Jim Maniaci  ...  Private Scarpetti  
Greg Collins  ...  Private Gamble  
Brendan Kelly  ...  Private Cox  

Plot:
A renegade general and his group of U.S. Marines take over Alcatraz and threaten San Francisco Bay with biological weapons. A chemical weapons specialist and the only man to have ever escaped from the Rock attempt to prevent chaos.

Specifications:
General
Format                           : Matroska
Overall bit rate                 : 8 638 Kbps

Video
Format                           : AVC
Format/Info                      : Advanced Video Codec
Format profile                   : High@L4.1
Format settings, CABAC           : Yes
Format settings, ReFrames        : 3 frames
Muxing mode                      : Container profile=Unknown@4.1
Codec ID                         : V_MPEG4/ISO/AVC
Bit rate                         : 6 727 Kbps
Width                            : 1 920 pixels
Height                           : 1 080 pixels
Display aspect ratio             : 16:9
Frame rate                       : 23.976 fps

Audio 1
Format                           : DTS
Format/Info                      : Digital Theater Systems
Codec ID                         : A_DTS
Bit rate mode                    : Constant
Bit rate                         : 1 510 Kbps
Channel(s)                       : 6 channels
Channel positions                : Front: L C R, Side: L R, LFE
Sampling rate                    : 48.0 KHz
Bit depth                        : 16 bits
Stream size                      : 1.44 GiB (17%)
Title                            : English_A

Audio 2
Format                           : AC-3
Format/Info                      : Audio Coding 3
Mode extension                   : CM (complete main)
Codec ID                         : A_AC3
Bit rate mode                    : Constant
Bit rate                         : 448 Kbps
Channel(s)                       : 6 channels
Channel positions                : Front: L C R, Side: L R, LFE
Sampling rate                    : 48.0 KHz
Stream size                      : 437 MiB (5%)
Title                            : Polish_A

Text 
Format                           : UTF-8
Codec ID                         : S_TEXT/UTF8
Codec ID/Info                    : UTF-8 Plain Text
